<svg xmlns="http://www.w3.org/2000/svg" viewBox="0 0 155.86566162109375 32.403831481933594">  <g transform="matrix(1 0 0 1 45.37409973144531 6.736295700073242)"> <g> <g> <g is="lm-picture">  <g transform="matrix(0.41978991413679917 -0.000590224424099538 0.000590058769972253 0.4197898154698164 -1.284008119514076 -6.7192499393282885)"> <g transform="matrix(1 0 0 1 0 0)"> <defs> <linearGradient x1="0" y1="0" x2="0" y2="1" id="gradient123" gradientTransform="rotate(-90 .5 .5)"> <stop offset="0" stop-color="#9fba0c" stop-opacity="1"/><stop offset="1" stop-color="#0a897f" stop-opacity="1"/> </linearGradient>  </defs> <path fill="url(#gradient123)" d="M89 42.25Q89.65 39.4 90.7 37.45 92.05 35.05 94.2 33.75 91.95 35 90.55 37.4 89.4 39.3 88.65 42.15 88.2 43.8 87.6 47.15 87.25 48.9 87.1 49.65 86.75 51 86.35 51.95 86.3 52.1 86.1 52.2 85.95 52.3 85.65 52.45L85.1 52.65Q84.85 52.7 84.6 52.75 84.15 52.8 83.45 52.7L69.9 51.65Q68.2 51.5 67.6 51.35 66.55 51.1 65.8 50.35 65.15 49.75 64.4 48.6L57.85 37.95Q58.8 38.15 60.35 38.4 62.85 38.8 65.2 39 67.7 39.2 70.1 39.25 72.85 39.3 74.35 39.2 75.1 39.2 76.05 39.1L78.5 38.9 74.35 38.85Q72.55 38.8 70.15 38.55 67.75 38.3 65.35 37.9 62.9 37.45 60.65 36.9 58.4 36.35 56.6 35.8L52.75 34.45 52.05 36.55 54.9 37.25 63 49.5Q63.9 50.75 64.75 51.5 65.85 52.45 67.2 52.75 68.1 52.95 69.8 53.05L76.55 53.3 75.2 53.45Q74.45 53.6 73.45 53.85 71.95 54.3 70.2 55.25 68.85 56 67.45 57.05 66.35 57.85 65.25 58.9 63.6 60.4 62.2 62L61.2 63.15Q60.55 62.95 59.95 62.95 59.1 62.95 58.4 63.2 57.7 63.4 57 63.85 55.65 64.65 54.75 66.15 53.85 67.65 53.75 69.2 53.65 69.95 53.8 70.8 53.95 71.6 54.3 72.4 54.65 73.1 55.3 73.7 55.9 74.25 56.65 74.55 57.25 74.8 58.1 74.9 58.8 74.95 59.5 74.8 60.7 74.55 61.7 73.9 62.5 73.4 63.1 72.75 63.25 72.55 63.5 72.25L64.05 71.5 62.15 70.4 61.5 71.35Q61.2 71.8 60.6 72.25 59.85 72.8 59.1 73 58.8 73.1 58.2 73.15 57.55 73.1 57.25 73 56.2 72.65 55.6 71.65 55.3 71.15 55.15 70.55 55 70 55 69.25 55.05 68 55.7 66.7 56.45 65.35 57.5 64.6 58 64.2 58.65 63.95 59.2 63.7 59.95 63.65 61.3 63.55 62.35 64.35 62.75 64.6 63.2 65.2 63.6 65.8 63.7 66.2 64.05 67.05 64 68.2 64 69.1 63.75 69.75 63.7 70 63.55 70.3L63.45 70.65 63.85 69.75Q64.1 69.1 64.2 68.2 64.3 67.05 64.05 66.1 63.9 65.6 63.55 64.95 63.25 64.55 63.05 64.3L63.75 63.35Q65.3 61.5 66.5 60.25 67.65 59.05 68.5 58.35 69.75 57.3 70.95 56.55 72.45 55.6 73.85 55.1 74.85 54.75 75.45 54.65 76.25 54.45 77.1 54.4 78.7 54.25 80.5 54.45 82.25 54.65 83.75 55.1 86.25 55.8 89.3 57.35 90.35 57.9 92.55 59.1 92.05 59.6 91.75 60 91.65 60.1 91.4 60.5L91.05 61.15 93.1 62 93.15 61.8 93.45 61.2Q93.8 60.6 94.35 60.15 94.7 59.85 95.15 59.65 95.4 59.55 95.85 59.45 96.35 59.4 96.6 59.45 97.4 59.6 98 60.3 98.6 61 98.7 62.1 98.85 63.1 98.45 64.25 98 65.4 97.3 66.15 96.45 66.95 95.4 67.15 94.35 67.4 93.4 66.85 93.1 66.75 92.6 66.3 92.2 65.85 92.05 65.5 91.7 64.8 91.6 63.9 91.55 63.2 91.65 62.65L91.8 61.8 91.55 62.6Q91.4 63.2 91.4 63.95 91.45 64.9 91.75 65.65 91.9 66.05 92.3 66.55 92.75 67.05 93.1 67.3 94.2 68 95.5 67.85 96.8 67.7 97.85 66.8 98.8 66 99.5 64.65 100.05 63.3 100 62 100 60.55 99.2 59.4 98.4 58.2 97 57.8 96.5 57.65 95.7 57.65 95 57.7 94.5 57.9 93.6 58.2 92.75 58.9L92.6 59Q90.75 57.8 89.45 57.05 86.65 55.35 84 54.45 81.9 53.7 80 53.45L83.4 53.6Q84.25 53.65 84.7 53.55 85.05 53.5 85.35 53.4L85.95 53.15Q86.3 53.05 86.55 52.85 86.9 52.6 87 52.25 87.45 51.2 87.7 49.75 87.9 48.9 88.1 47.25 88.6 43.85 89 42.25Z"/> </g><g transform="matrix(1 0 0 1 0 0)"> <defs> <linearGradient x1="0" y1="0" x2="0" y2="1" id="gradient124" gradientTransform="rotate(-90 .5 .5)"> <stop offset="0" stop-color="#FF4F00" stop-opacity="1"/><stop offset="1" stop-color="#FF8A3F" stop-opacity="1"/> </linearGradient>  </defs> <path fill="url(#gradient124)" d="M56.25 42.8L56.25 40.65 44.15 41.9 56.25 42.8Z"/> </g><g transform="matrix(1 0 0 1 0 0)"> <defs> <linearGradient x1="0" y1="0" x2="0" y2="1" id="gradient125" gradientTransform="rotate(-90 .5 .5)"> <stop offset="0" stop-color="#FF4F00" stop-opacity="1"/><stop offset="1" stop-color="#FF8A3F" stop-opacity="1"/> </linearGradient>  </defs> <path fill="url(#gradient125)" d="M59.15 47.45L59.05 45.25 53.65 46.85 59.15 47.45Z"/> </g><g transform="matrix(1 0 0 1 0 0)"> <defs> <linearGradient x1="0" y1="0" x2="0" y2="1" id="gradient126" gradientTransform="rotate(-180 .5 .5)"> <stop offset="0" stop-color="#f96024" stop-opacity="1"/><stop offset="1" stop-color="#eb561c" stop-opacity="1"/> </linearGradient>  </defs> <path fill="url(#gradient126)" d="M62.8 2.45L63.95 3.5Q64.7 4.4 65 5.15 65.75 6.65 65.85 8.5 66 10.05 65.75 11.2 65.7 11.55 65.5 12.2L65.1 13.5 65.6 12.25Q65.85 11.45 65.9 11.25 66.25 10.05 66.3 8.5 66.3 6.55 65.65 4.9 65.35 4.05 64.6 3L64.05 2.3 62.9 1.35Q61.9 0.65 60.6 0.3 59.3 0 57.95 0.15 56.5 0.35 55.35 0.9 54.05 1.5 53 2.35 52.8 2.5 52 3.3L51.1 4.35Q50.35 5.25 49.6 6.75 48.9 8.35 48.7 9.4 48.6 9.75 48.45 10.8 48.35 12 48.35 12.25 48.35 13.05 48.5 14.15L47.2 15.7Q44.6 19 41.95 22.8 39.05 27 35.2 33.2 33.65 35.75 33.45 36.2 32.45 38.05 32.2 39.7 32.1 40.8 32.3 41.7L32.3 41.75 31.65 43.2Q30.7 45.1 29.35 46.75 27.35 49.2 24.85 50.55 21.65 52.3 18.25 52 16.55 51.85 14.85 51.1 13.8 50.65 11.75 49.45 10 48.45 8.8 47.95 7.35 47.3 6 46.95 3.9 46.35 1.65 46.15L0 46.05 0.45 46.1Q1.05 46.15 1.65 46.25 3.7 46.5 5.9 47.25 7.35 47.8 8.6 48.4 9.7 48.95 11.4 50.05 13.55 51.45 14.45 51.9 15.55 52.4 16.2 52.65 17.05 52.9 18.1 53.1 20 53.35 21.95 53 23.8 52.7 25.5 51.9 28.35 50.55 30.75 47.95 32.25 46.3 33.5 44.2 33.55 44.1 33.5 43.9 34.05 44.4 34.7 44.8 35.6 45.25 36.45 45.5 37 45.65 38.25 45.95 39.35 46.25 39.95 46.45 41.75 47.05 42.8 48.2 43.85 49.45 44.25 51.2 44.65 52.7 44.45 54.55 44.3 56 43.8 57.75 43.55 58.65 42.8 60.8 41.7 63.85 40.7 66.25 39.1 70.25 37.1 74.2 36.15 76.1 35.6 77.15 36.2 76.1 37.2 74.25 39.35 70.2 41.05 66.4 42.3 63.5 43.3 60.95 44.15 58.7 44.4 57.95 44.95 56.15 45.15 54.65 45.4 52.7 45.05 51.05 44.65 49.1 43.45 47.65 42.3 46.2 40.25 45.5 39.6 45.25 38.5 44.95 37.25 44.6 36.8 44.45 34.85 43.8 34.1 42.75 33.2 41.65 33.5 39.9 33.7 38.65 34.65 36.85 34.9 36.35 35.55 35.4L36.45 34Q39 30.15 41.45 26.65 41.8 27.05 42.45 27.65 44.5 29.65 47.1 31.25 50.15 33.05 52.5 33.5 53.35 33.7 53.55 33.7 53.6 33.7 54 33.7 54.2 33.75 54.35 33.75L55.05 33.75 54.35 33.65Q53.85 33.55 53.55 33.5 52.95 33.3 52.55 33.2 50.3 32.4 47.75 30.35 45.5 28.55 43.8 26.45 43.35 25.9 42.75 24.95L42.7 24.9 43.45 23.85Q46.45 19.8 48.85 17.05L49.25 16.55Q49.65 17.35 49.85 17.7 50.65 18.95 51.85 19.85 53.05 20.75 54.4 21.15L56.1 21.45 57.1 21.45Q58.6 21.3 59.5 20.95 61.5 20.3 63.2 18.95 64.55 17.75 65.35 16.6 65.6 16.35 66 15.65 66.15 15.45 66.45 14.9L66.8 14.25 65.1 13.5 62.8 12.5 62.6 12.95Q62.45 13.3 62.3 13.5 61.95 14.2 61.9 14.25 61.45 15.05 60.55 15.95 59.45 17 58.3 17.5 57.8 17.75 56.8 17.9L56.25 17.95 55.25 17.9Q54.3 17.65 53.7 17.25 52.9 16.8 52.35 16.05 51.65 15.1 51.4 14.25 51 13.15 50.95 12.15 50.9 11.4 50.9 11 50.95 10.25 51.05 9.9 51.1 9.1 51.6 7.6 52.2 6.25 52.7 5.5 52.9 5.15 53.35 4.55L54.15 3.7Q55 2.9 56.05 2.3 56.95 1.8 58.15 1.5 59.2 1.3 60.35 1.45 61.35 1.6 62.35 2.2L62.8 2.45Z"/> </g> </g> </g><g is="lm-text" transform="matrix(1.0843370307598688 0 0 1.0843370746186314 -58.86807156040117 8.463501730894077)">  <defs> <linearGradient x1="0" y1="0" x2="0" y2="1" id="gradient127" gradientTransform="rotate(0 .5 .5)"> <stop offset="0" stop-color="#5b2b05" stop-opacity="1"/><stop offset="1" stop-color="#151311" stop-opacity="1"/> </linearGradient>  </defs> <path fill="url(#gradient127)" d="M14.77777777777778,-3.0555555555555607C15.388888888888893,-3.0555555555555607,16.388888888888893,-3.0555555555555607,17.833333333333336,-3.111111111111116C19.27777777777778,-3.1666666666666714,20.388888888888893,-3.1666666666666714,21.111111111111114,-3.1666666666666714C21.16666666666667,-2.777777777777784,21.222222222222225,-2.3333333333333393,21.388888888888893,-1.7222222222222285C21.555555555555557,-1.111111111111116,21.611111111111114,-0.7222222222222285,21.66666666666667,-0.5555555555555607C21.611111111111114,-0.5000000000000053,21.5,-0.44444444444444997,21.333333333333336,-0.44444444444444997C21.16666666666667,-0.44444444444444997,21.055555555555557,-0.44444444444444997,21.055555555555557,-0.5555555555555607C20.833333333333336,-1.277777777777784,20.555555555555557,-1.777777777777784,20.16666666666667,-2.0555555555555607C19.77777777777778,-2.3333333333333393,19.388888888888893,-2.3888888888888946,18.77777777777778,-2.3888888888888946C18.77777777777778,-2.3888888888888946,17.111111111111114,-2.3888888888888946,17.111111111111114,-2.3888888888888946C16.27777777777778,-2.3888888888888946,15.77777777777778,-2.3888888888888946,15.722222222222225,-2.2222222222222285C15.66666666666667,-2.0000000000000053,15.66666666666667,-1.5555555555555607,15.66666666666667,-0.8333333333333393C15.66666666666667,-0.8333333333333393,15.66666666666667,2.8333333333333277,15.66666666666667,2.8333333333333277C15.66666666666667,2.888888888888883,15.722222222222225,2.9444444444444384,15.888888888888893,2.9444444444444384C15.888888888888893,2.9444444444444384,16.500000000000004,2.9444444444444384,16.500000000000004,2.9444444444444384C16.500000000000004,2.9444444444444384,17.500000000000004,2.9444444444444384,17.500000000000004,2.9444444444444384C17.500000000000004,2.9444444444444384,18.27777777777778,2.9444444444444384,18.27777777777778,2.9444444444444384C18.27777777777778,2.9444444444444384,18.611111111111114,2.9444444444444384,18.77777777777778,2.888888888888883C18.944444444444446,2.8333333333333277,19.111111111111114,2.8333333333333277,19.16666666666667,2.7777777777777715C19.222222222222225,2.722222222222216,19.27777777777778,2.6666666666666607,19.333333333333336,2.55555555555555C19.333333333333336,2.55555555555555,19.500000000000004,2.222222222222216,19.500000000000004,2.222222222222216C19.555555555555557,1.9999999999999938,19.555555555555557,1.9999999999999938,19.611111111111114,1.722222222222216C19.611111111111114,1.6666666666666607,19.66666666666667,1.6111111111111054,19.66666666666667,1.55555555555555C19.66666666666667,1.4444444444444393,19.77777777777778,1.4444444444444393,19.944444444444446,1.4444444444444393C20.111111111111114,1.4444444444444393,20.222222222222225,1.4444444444444393,20.27777777777778,1.4999999999999947C20.27777777777778,1.4999999999999947,20.27777777777778,5.222222222222216,20.27777777777778,5.222222222222216C20.222222222222225,5.2777777777777715,20.16666666666667,5.2777777777777715,20.000000000000004,5.2777777777777715C19.833333333333336,5.2777777777777715,19.722222222222225,5.222222222222216,19.66666666666667,5.111111111111105C19.555555555555557,4.611111111111105,19.444444444444446,4.333333333333328,19.388888888888893,4.166666666666661C19.333333333333336,3.999999999999994,19.222222222222225,3.888888888888883,19.111111111111114,3.8333333333333277C18.944444444444446,3.722222222222216,18.27777777777778,3.6666666666666607,17.055555555555557,3.6666666666666607C16.111111111111114,3.6666666666666607,15.66666666666667,3.722222222222216,15.66666666666667,3.8333333333333277C15.66666666666667,3.8333333333333277,15.66666666666667,7.499999999999994,15.66666666666667,7.499999999999994C15.66666666666667,8.277777777777771,15.66666666666667,8.722222222222216,15.722222222222225,8.944444444444438C15.722222222222225,9.05555555555555,16.000000000000004,9.111111111111105,16.388888888888893,9.16666666666666C16.77777777777778,9.222222222222216,17.055555555555557,9.277777777777771,17.27777777777778,9.277777777777771C17.333333333333336,9.333333333333327,17.333333333333336,9.444444444444438,17.333333333333336,9.55555555555555C17.333333333333336,9.66666666666666,17.333333333333336,9.777777777777771,17.27777777777778,9.833333333333327C15.944444444444446,9.777777777777771,15.111111111111114,9.722222222222216,14.77777777777778,9.722222222222216C14.444444444444446,9.722222222222216,14.111111111111114,9.722222222222216,13.611111111111114,9.777777777777771C13.111111111111114,9.833333333333327,12.722222222222225,9.833333333333327,12.500000000000004,9.833333333333327C12.444444444444448,9.777777777777771,12.444444444444448,9.66666666666666,12.444444444444448,9.55555555555555C12.444444444444448,9.444444444444438,12.444444444444448,9.333333333333327,12.500000000000004,9.277777777777771C12.722222222222225,9.277777777777771,12.944444444444448,9.222222222222216,13.27777777777778,9.16666666666666C13.611111111111114,9.111111111111105,13.833333333333336,9.05555555555555,13.833333333333336,8.944444444444438C13.888888888888893,8.722222222222216,13.944444444444446,8.277777777777771,13.944444444444446,7.499999999999994C13.944444444444446,7.499999999999994,13.944444444444446,-0.8333333333333393,13.944444444444446,-0.8333333333333393C13.944444444444446,-1.611111111111116,13.888888888888893,-2.0555555555555607,13.833333333333336,-2.277777777777784C13.833333333333336,-2.3888888888888946,13.611111111111114,-2.44444444444445,13.27777777777778,-2.5000000000000053C12.944444444444448,-2.5555555555555607,12.722222222222225,-2.611111111111116,12.500000000000004,-2.611111111111116C12.444444444444448,-2.6666666666666714,12.444444444444448,-2.777777777777784,12.444444444444448,-2.8888888888888946C12.444444444444448,-3.0000000000000053,12.444444444444448,-3.111111111111116,12.500000000000004,-3.1666666666666714C13.833333333333336,-3.111111111111116,14.555555555555559,-3.0555555555555607,14.77777777777778,-3.0555555555555607C14.77777777777778,-3.0555555555555607,14.77777777777778,-3.0555555555555607,14.77777777777778,-3.0555555555555607M26.777777777777793,1.8333333333333277C26.277777777777793,1.8333333333333277,25.83333333333335,1.9999999999999938,25.500000000000014,2.3333333333333277C25.166666666666682,2.6666666666666607,24.888888888888903,3.1111111111111054,24.72222222222224,3.6111111111111054C24.55555555555557,4.111111111111105,24.55555555555557,4.611111111111105,24.55555555555557,5.222222222222216C24.55555555555557,5.888888888888882,24.61111111111113,6.499999999999994,24.83333333333335,7.111111111111105C25.05555555555557,7.722222222222216,25.33333333333335,8.222222222222216,25.777777777777793,8.66666666666666C26.222222222222236,9.111111111111105,26.722222222222236,9.277777777777771,27.277777777777793,9.277777777777771C27.777777777777793,9.277777777777771,28.222222222222236,9.111111111111105,28.55555555555557,8.777777777777771C28.888888888888903,8.444444444444438,29.166666666666682,7.999999999999994,29.33333333333335,7.499999999999994C29.500000000000014,6.999999999999994,29.500000000000014,6.499999999999994,29.500000000000014,5.888888888888882C29.500000000000014,5.222222222222216,29.44444444444446,4.611111111111105,29.222222222222236,3.999999999999994C29.000000000000014,3.388888888888883,28.722222222222236,2.9444444444444384,28.277777777777793,2.499999999999994C27.83333333333335,2.05555555555555,27.33333333333335,1.8333333333333277,26.777777777777793,1.8333333333333277C26.777777777777793,1.8333333333333277,26.777777777777793,1.8333333333333277,26.777777777777793,1.8333333333333277M27.000000000000014,1.222222222222216C28.277777777777793,1.222222222222216,29.277777777777793,1.6111111111111054,30.05555555555557,2.388888888888883C30.83333333333335,3.1666666666666607,31.222222222222236,4.222222222222216,31.222222222222236,5.444444444444438C31.222222222222236,6.722222222222216,30.777777777777793,7.7777777777777715,30.000000000000014,8.611111111111105C29.222222222222236,9.444444444444438,28.222222222222236,9.888888888888882,27.05555555555557,9.888888888888882C25.777777777777793,9.888888888888882,24.777777777777793,9.55555555555555,24.000000000000014,8.722222222222216C23.22222222222224,7.888888888888882,22.83333333333335,6.833333333333327,22.83333333333335,5.611111111111105C22.83333333333335,4.333333333333328,23.277777777777793,3.2777777777777715,24.05555555555557,2.4444444444444384C24.83333333333335,1.6111111111111054,25.83333333333335,1.222222222222216,27.000000000000014,1.222222222222216C27.000000000000014,1.222222222222216,27.000000000000014,1.222222222222216,27.000000000000014,1.222222222222216M36.66666666666668,1.8333333333333277C36.16666666666668,1.8333333333333277,35.722222222222236,1.9999999999999938,35.3888888888889,2.3333333333333277C35.05555555555557,2.6666666666666607,34.77777777777779,3.1111111111111054,34.61111111111112,3.6111111111111054C34.44444444444446,4.111111111111105,34.44444444444446,4.611111111111105,34.44444444444446,5.222222222222216C34.44444444444446,5.888888888888882,34.500000000000014,6.499999999999994,34.722222222222236,7.111111111111105C34.94444444444446,7.722222222222216,35.222222222222236,8.222222222222216,35.66666666666668,8.66666666666666C36.11111111111112,9.111111111111105,36.61111111111112,9.277777777777771,37.16666666666668,9.277777777777771C37.66666666666668,9.277777777777771,38.11111111111112,9.111111111111105,38.44444444444446,8.777777777777771C38.77777777777779,8.444444444444438,39.05555555555557,7.999999999999994,39.222222222222236,7.499999999999994C39.3888888888889,6.999999999999994,39.3888888888889,6.499999999999994,39.3888888888889,5.888888888888882C39.3888888888889,5.222222222222216,39.33333333333334,4.611111111111105,39.11111111111112,3.999999999999994C38.8888888888889,3.388888888888883,38.61111111111112,2.9444444444444384,38.16666666666668,2.499999999999994C37.722222222222236,2.05555555555555,37.222222222222236,1.8333333333333277,36.66666666666668,1.8333333333333277C36.66666666666668,1.8333333333333277,36.66666666666668,1.8333333333333277,36.66666666666668,1.8333333333333277M36.8888888888889,1.222222222222216C38.16666666666668,1.222222222222216,39.16666666666668,1.6111111111111054,39.94444444444446,2.388888888888883C40.722222222222236,3.1666666666666607,41.11111111111112,4.222222222222216,41.11111111111112,5.444444444444438C41.11111111111112,6.722222222222216,40.66666666666668,7.7777777777777715,39.8888888888889,8.611111111111105C39.11111111111112,9.444444444444438,38.11111111111112,9.888888888888882,36.94444444444446,9.888888888888882C35.66666666666668,9.888888888888882,34.66666666666668,9.55555555555555,33.8888888888889,8.722222222222216C33.11111111111112,7.888888888888882,32.722222222222236,6.833333333333327,32.722222222222236,5.611111111111105C32.722222222222236,4.333333333333328,33.16666666666668,3.2777777777777715,33.94444444444446,2.4444444444444384C34.722222222222236,1.6111111111111054,35.722222222222236,1.222222222222216,36.8888888888889,1.222222222222216C36.8888888888889,1.222222222222216,36.8888888888889,1.222222222222216,36.8888888888889,1.222222222222216M47.22222222222223,1.222222222222216C47.44444444444446,1.222222222222216,47.72222222222223,1.222222222222216,48.00000000000001,1.2777777777777715C48.277777777777786,1.3333333333333268,48.50000000000001,1.3888888888888822,48.61111111111112,1.4444444444444393C48.66666666666668,1.4444444444444393,48.66666666666668,1.2777777777777715,48.66666666666668,0.9999999999999947C48.66666666666668,0.9999999999999947,48.66666666666668,-1.111111111111116,48.66666666666668,-1.111111111111116C48.66666666666668,-1.611111111111116,48.66666666666668,-1.94444444444445,48.61111111111112,-2.111111111111116C48.50000000000001,-2.3333333333333393,48.11111111111112,-2.5000000000000053,47.3888888888889,-2.5000000000000053C47.3888888888889,-2.5000000000000053,47.3888888888889,-2.611111111111116,47.3888888888889,-2.611111111111116C47.3888888888889,-2.611111111111116,47.3888888888889,-2.8333333333333393,47.3888888888889,-2.8333333333333393C47.3888888888889,-2.8333333333333393,47.44444444444446,-3.0000000000000053,47.44444444444446,-3.0000000000000053C48.33333333333334,-3.111111111111116,49.22222222222223,-3.3333333333333393,50.16666666666667,-3.777777777777784C50.22222222222223,-3.777777777777784,50.277777777777786,-3.7222222222222285,50.33333333333334,-3.6666666666666714C50.3888888888889,-3.611111111111116,50.3888888888889,-3.5000000000000053,50.3888888888889,-3.44444444444445C50.22222222222223,-3.0000000000000053,50.16666666666667,-2.5000000000000053,50.16666666666667,-1.777777777777784C50.16666666666667,-1.777777777777784,50.16666666666667,6.611111111111105,50.16666666666667,6.611111111111105C50.16666666666667,7.666666666666661,50.22222222222223,8.277777777777771,50.33333333333334,8.499999999999993C50.3888888888889,8.55555555555555,50.44444444444446,8.66666666666666,50.555555555555564,8.722222222222216C50.66666666666667,8.777777777777771,50.83333333333334,8.833333333333327,50.94444444444446,8.833333333333327C50.94444444444446,8.833333333333327,51.277777777777786,8.833333333333327,51.277777777777786,8.833333333333327C51.277777777777786,8.833333333333327,51.50000000000001,8.833333333333327,51.50000000000001,8.833333333333327C51.555555555555564,8.833333333333327,51.555555555555564,8.999999999999993,51.555555555555564,9.111111111111105C51.555555555555564,9.16666666666666,51.555555555555564,9.222222222222216,51.50000000000001,9.277777777777771C51.44444444444446,9.333333333333327,51.44444444444446,9.388888888888882,51.3888888888889,9.388888888888882C51.22222222222223,9.388888888888882,50.94444444444446,9.388888888888882,50.72222222222223,9.444444444444438C50.72222222222223,9.444444444444438,50.055555555555564,9.611111111111105,50.055555555555564,9.611111111111105C50.055555555555564,9.611111111111105,49.61111111111112,9.722222222222216,49.44444444444446,9.777777777777771C49.16666666666668,9.833333333333327,49.16666666666668,9.833333333333327,49.00000000000001,9.888888888888882C49.00000000000001,9.888888888888882,48.83333333333334,9.944444444444438,48.83333333333334,9.944444444444438C48.72222222222223,9.944444444444438,48.66666666666668,9.777777777777771,48.66666666666668,9.55555555555555C48.66666666666668,9.55555555555555,48.66666666666668,8.888888888888882,48.66666666666668,8.888888888888882C48.66666666666668,8.777777777777771,48.61111111111112,8.777777777777771,48.61111111111112,8.777777777777771C48.3888888888889,8.999999999999993,48.055555555555564,9.222222222222216,47.50000000000001,9.499999999999993C46.94444444444446,9.777777777777771,46.50000000000001,9.944444444444438,46.055555555555564,9.944444444444438C45.16666666666668,9.944444444444438,44.277777777777786,9.55555555555555,43.61111111111112,8.722222222222216C42.94444444444446,7.888888888888882,42.61111111111112,6.944444444444438,42.61111111111112,5.7777777777777715C42.61111111111112,5.166666666666661,42.72222222222223,4.555555555555549,43.055555555555564,3.999999999999994C43.3888888888889,3.4444444444444384,43.83333333333334,2.888888888888883,44.277777777777786,2.499999999999994C44.72222222222223,2.1111111111111054,45.22222222222223,1.7777777777777715,45.777777777777786,1.55555555555555C46.33333333333334,1.3333333333333268,46.777777777777786,1.222222222222216,47.22222222222223,1.222222222222216C47.22222222222223,1.222222222222216,47.22222222222223,1.222222222222216,47.22222222222223,1.222222222222216M46.61111111111112,2.05555555555555C45.8888888888889,2.05555555555555,45.33333333333334,2.3333333333333277,44.8888888888889,2.999999999999994C44.44444444444446,3.6666666666666607,44.22222222222223,4.388888888888883,44.22222222222223,5.2777777777777715C44.22222222222223,6.222222222222216,44.50000000000001,7.05555555555555,45.00000000000001,7.722222222222216C45.50000000000001,8.388888888888882,46.16666666666668,8.722222222222216,47.00000000000001,8.722222222222216C47.44444444444446,8.722222222222216,47.83333333333334,8.611111111111105,48.16666666666668,8.444444444444438C48.50000000000001,8.277777777777771,48.66666666666668,8.111111111111105,48.66666666666668,7.944444444444438C48.66666666666668,7.944444444444438,48.66666666666668,2.999999999999994,48.66666666666668,2.999999999999994C48.66666666666668,2.7777777777777715,48.50000000000001,2.55555555555555,48.055555555555564,2.3333333333333277C47.61111111111112,2.1111111111111054,47.16666666666668,2.05555555555555,46.61111111111112,2.05555555555555C46.61111111111112,2.05555555555555,46.61111111111112,2.05555555555555,46.61111111111112,2.05555555555555"/> </g><g is="lm-text" transform="matrix(1.0724435976266529 0 0 1.0724429864662817 29.93913913052788 8.618987451296794)">  <defs> <linearGradient x1="0" y1="0" x2="0" y2="1" id="gradient128" gradientTransform="rotate(0 .5 .5)"> <stop offset="0" stop-color="#c91d1d" stop-opacity="1"/><stop offset="0.8214285714285714" stop-color="#3d0404" stop-opacity="1"/> </linearGradient>  </defs> <path fill="url(#gradient128)" d="M14.77777777777778,-3.0555555555555607C15.388888888888893,-3.0555555555555607,16.388888888888893,-3.0555555555555607,17.833333333333336,-3.111111111111116C19.27777777777778,-3.1666666666666714,20.388888888888893,-3.1666666666666714,21.111111111111114,-3.1666666666666714C21.16666666666667,-2.777777777777784,21.222222222222225,-2.3333333333333393,21.388888888888893,-1.7222222222222285C21.555555555555557,-1.111111111111116,21.611111111111114,-0.7222222222222285,21.66666666666667,-0.5555555555555607C21.611111111111114,-0.5000000000000053,21.5,-0.44444444444444997,21.333333333333336,-0.44444444444444997C21.16666666666667,-0.44444444444444997,21.055555555555557,-0.44444444444444997,21.055555555555557,-0.5555555555555607C20.833333333333336,-1.277777777777784,20.555555555555557,-1.777777777777784,20.16666666666667,-2.0555555555555607C19.77777777777778,-2.3333333333333393,19.388888888888893,-2.3888888888888946,18.77777777777778,-2.3888888888888946C18.77777777777778,-2.3888888888888946,17.111111111111114,-2.3888888888888946,17.111111111111114,-2.3888888888888946C16.27777777777778,-2.3888888888888946,15.77777777777778,-2.3888888888888946,15.722222222222225,-2.2222222222222285C15.66666666666667,-2.0000000000000053,15.66666666666667,-1.5555555555555607,15.66666666666667,-0.8333333333333393C15.66666666666667,-0.8333333333333393,15.66666666666667,2.8333333333333277,15.66666666666667,2.8333333333333277C15.66666666666667,2.888888888888883,15.722222222222225,2.9444444444444384,15.888888888888893,2.9444444444444384C15.888888888888893,2.9444444444444384,16.500000000000004,2.9444444444444384,16.500000000000004,2.9444444444444384C16.500000000000004,2.9444444444444384,17.500000000000004,2.9444444444444384,17.500000000000004,2.9444444444444384C17.500000000000004,2.9444444444444384,18.27777777777778,2.9444444444444384,18.27777777777778,2.9444444444444384C18.27777777777778,2.9444444444444384,18.611111111111114,2.9444444444444384,18.77777777777778,2.888888888888883C18.944444444444446,2.8333333333333277,19.111111111111114,2.8333333333333277,19.16666666666667,2.7777777777777715C19.222222222222225,2.722222222222216,19.27777777777778,2.6666666666666607,19.333333333333336,2.55555555555555C19.333333333333336,2.55555555555555,19.500000000000004,2.222222222222216,19.500000000000004,2.222222222222216C19.555555555555557,1.9999999999999938,19.555555555555557,1.9999999999999938,19.611111111111114,1.722222222222216C19.611111111111114,1.6666666666666607,19.66666666666667,1.6111111111111054,19.66666666666667,1.55555555555555C19.66666666666667,1.4444444444444393,19.77777777777778,1.4444444444444393,19.944444444444446,1.4444444444444393C20.111111111111114,1.4444444444444393,20.222222222222225,1.4444444444444393,20.27777777777778,1.4999999999999947C20.27777777777778,1.4999999999999947,20.27777777777778,5.222222222222216,20.27777777777778,5.222222222222216C20.222222222222225,5.2777777777777715,20.16666666666667,5.2777777777777715,20.000000000000004,5.2777777777777715C19.833333333333336,5.2777777777777715,19.722222222222225,5.222222222222216,19.66666666666667,5.111111111111105C19.555555555555557,4.611111111111105,19.444444444444446,4.333333333333328,19.388888888888893,4.166666666666661C19.333333333333336,3.999999999999994,19.222222222222225,3.888888888888883,19.111111111111114,3.8333333333333277C18.944444444444446,3.722222222222216,18.27777777777778,3.6666666666666607,17.055555555555557,3.6666666666666607C16.111111111111114,3.6666666666666607,15.66666666666667,3.722222222222216,15.66666666666667,3.8333333333333277C15.66666666666667,3.8333333333333277,15.66666666666667,7.499999999999994,15.66666666666667,7.499999999999994C15.66666666666667,8.277777777777771,15.66666666666667,8.722222222222216,15.722222222222225,8.944444444444438C15.722222222222225,9.05555555555555,16.000000000000004,9.111111111111105,16.388888888888893,9.16666666666666C16.77777777777778,9.222222222222216,17.055555555555557,9.277777777777771,17.27777777777778,9.277777777777771C17.333333333333336,9.333333333333327,17.333333333333336,9.444444444444438,17.333333333333336,9.55555555555555C17.333333333333336,9.66666666666666,17.333333333333336,9.777777777777771,17.27777777777778,9.833333333333327C15.944444444444446,9.777777777777771,15.111111111111114,9.722222222222216,14.77777777777778,9.722222222222216C14.444444444444446,9.722222222222216,14.111111111111114,9.722222222222216,13.611111111111114,9.777777777777771C13.111111111111114,9.833333333333327,12.722222222222225,9.833333333333327,12.500000000000004,9.833333333333327C12.444444444444448,9.777777777777771,12.444444444444448,9.66666666666666,12.444444444444448,9.55555555555555C12.444444444444448,9.444444444444438,12.444444444444448,9.333333333333327,12.500000000000004,9.277777777777771C12.722222222222225,9.277777777777771,12.944444444444448,9.222222222222216,13.27777777777778,9.16666666666666C13.611111111111114,9.111111111111105,13.833333333333336,9.05555555555555,13.833333333333336,8.944444444444438C13.888888888888893,8.722222222222216,13.944444444444446,8.277777777777771,13.944444444444446,7.499999999999994C13.944444444444446,7.499999999999994,13.944444444444446,-0.8333333333333393,13.944444444444446,-0.8333333333333393C13.944444444444446,-1.611111111111116,13.888888888888893,-2.0555555555555607,13.833333333333336,-2.277777777777784C13.833333333333336,-2.3888888888888946,13.611111111111114,-2.44444444444445,13.27777777777778,-2.5000000000000053C12.944444444444448,-2.5555555555555607,12.722222222222225,-2.611111111111116,12.500000000000004,-2.611111111111116C12.444444444444448,-2.6666666666666714,12.444444444444448,-2.777777777777784,12.444444444444448,-2.8888888888888946C12.444444444444448,-3.0000000000000053,12.444444444444448,-3.111111111111116,12.500000000000004,-3.1666666666666714C13.833333333333336,-3.111111111111116,14.555555555555559,-3.0555555555555607,14.77777777777778,-3.0555555555555607C14.77777777777778,-3.0555555555555607,14.77777777777778,-3.0555555555555607,14.77777777777778,-3.0555555555555607M26.777777777777793,1.8333333333333277C26.277777777777793,1.8333333333333277,25.83333333333335,1.9999999999999938,25.500000000000014,2.3333333333333277C25.166666666666682,2.6666666666666607,24.888888888888903,3.1111111111111054,24.72222222222224,3.6111111111111054C24.55555555555557,4.111111111111105,24.55555555555557,4.611111111111105,24.55555555555557,5.222222222222216C24.55555555555557,5.888888888888882,24.61111111111113,6.499999999999994,24.83333333333335,7.111111111111105C25.05555555555557,7.722222222222216,25.33333333333335,8.222222222222216,25.777777777777793,8.66666666666666C26.222222222222236,9.111111111111105,26.722222222222236,9.277777777777771,27.277777777777793,9.277777777777771C27.777777777777793,9.277777777777771,28.222222222222236,9.111111111111105,28.55555555555557,8.777777777777771C28.888888888888903,8.444444444444438,29.166666666666682,7.999999999999994,29.33333333333335,7.499999999999994C29.500000000000014,6.999999999999994,29.500000000000014,6.499999999999994,29.500000000000014,5.888888888888882C29.500000000000014,5.222222222222216,29.44444444444446,4.611111111111105,29.222222222222236,3.999999999999994C29.000000000000014,3.388888888888883,28.722222222222236,2.9444444444444384,28.277777777777793,2.499999999999994C27.83333333333335,2.05555555555555,27.33333333333335,1.8333333333333277,26.777777777777793,1.8333333333333277C26.777777777777793,1.8333333333333277,26.777777777777793,1.8333333333333277,26.777777777777793,1.8333333333333277M27.000000000000014,1.222222222222216C28.277777777777793,1.222222222222216,29.277777777777793,1.6111111111111054,30.05555555555557,2.388888888888883C30.83333333333335,3.1666666666666607,31.222222222222236,4.222222222222216,31.222222222222236,5.444444444444438C31.222222222222236,6.722222222222216,30.777777777777793,7.7777777777777715,30.000000000000014,8.611111111111105C29.222222222222236,9.444444444444438,28.222222222222236,9.888888888888882,27.05555555555557,9.888888888888882C25.777777777777793,9.888888888888882,24.777777777777793,9.55555555555555,24.000000000000014,8.722222222222216C23.22222222222224,7.888888888888882,22.83333333333335,6.833333333333327,22.83333333333335,5.611111111111105C22.83333333333335,4.333333333333328,23.277777777777793,3.2777777777777715,24.05555555555557,2.4444444444444384C24.83333333333335,1.6111111111111054,25.83333333333335,1.222222222222216,27.000000000000014,1.222222222222216C27.000000000000014,1.222222222222216,27.000000000000014,1.222222222222216,27.000000000000014,1.222222222222216M37.8888888888889,1.222222222222216C38.16666666666668,1.222222222222216,38.3888888888889,1.2777777777777715,38.61111111111112,1.3888888888888822C38.83333333333334,1.4999999999999947,38.94444444444446,1.6666666666666607,39.05555555555557,1.8333333333333277C39.11111111111112,1.9999999999999938,39.16666666666668,2.1111111111111054,39.16666666666668,2.3333333333333277C39.16666666666668,2.6666666666666607,39.11111111111112,2.9444444444444384,38.94444444444446,3.1111111111111054C38.77777777777779,3.2777777777777715,38.61111111111112,3.3333333333333277,38.500000000000014,3.3333333333333277C38.3888888888889,3.3333333333333277,38.33333333333334,3.3333333333333277,38.27777777777779,3.2777777777777715C38.222222222222236,3.222222222222216,38.11111111111112,3.1666666666666607,38.000000000000014,3.1111111111111054C38.000000000000014,3.1111111111111054,37.77777777777779,2.999999999999994,37.77777777777779,2.999999999999994C37.55555555555557,2.8333333333333277,37.27777777777779,2.722222222222216,37.05555555555557,2.722222222222216C36.66666666666668,2.722222222222216,36.33333333333334,2.9444444444444384,36.000000000000014,3.388888888888883C35.66666666666668,3.8333333333333277,35.500000000000014,4.222222222222216,35.500000000000014,4.499999999999994C35.500000000000014,4.499999999999994,35.500000000000014,7.499999999999994,35.500000000000014,7.499999999999994C35.500000000000014,8.277777777777771,35.55555555555557,8.722222222222216,35.61111111111112,8.944444444444438C35.61111111111112,9.05555555555555,35.83333333333334,9.111111111111105,36.27777777777779,9.16666666666666C36.722222222222236,9.222222222222216,37.05555555555557,9.277777777777771,37.27777777777779,9.277777777777771C37.33333333333334,9.333333333333327,37.33333333333334,9.444444444444438,37.33333333333334,9.55555555555555C37.33333333333334,9.66666666666666,37.33333333333334,9.777777777777771,37.27777777777779,9.833333333333327C35.94444444444446,9.777777777777771,35.11111111111112,9.722222222222216,34.83333333333334,9.722222222222216C34.722222222222236,9.722222222222216,34.000000000000014,9.777777777777771,32.66666666666668,9.833333333333327C32.61111111111112,9.777777777777771,32.61111111111112,9.66666666666666,32.61111111111112,9.55555555555555C32.61111111111112,9.444444444444438,32.61111111111112,9.333333333333327,32.66666666666668,9.277777777777771C32.83333333333334,9.277777777777771,33.11111111111112,9.222222222222216,33.3888888888889,9.16666666666666C33.66666666666668,9.111111111111105,33.8888888888889,9.05555555555555,33.8888888888889,8.944444444444438C33.94444444444446,8.777777777777771,34.000000000000014,8.277777777777771,34.000000000000014,7.499999999999994C34.000000000000014,7.499999999999994,34.000000000000014,3.888888888888883,34.000000000000014,3.888888888888883C34.000000000000014,3.388888888888883,33.94444444444446,3.05555555555555,33.8888888888889,2.888888888888883C33.83333333333334,2.7777777777777715,33.722222222222236,2.6666666666666607,33.500000000000014,2.6111111111111054C33.27777777777779,2.55555555555555,33.16666666666668,2.499999999999994,33.000000000000014,2.499999999999994C33.000000000000014,2.499999999999994,32.61111111111112,2.499999999999994,32.61111111111112,2.499999999999994C32.61111111111112,2.499999999999994,32.55555555555557,2.388888888888883,32.55555555555557,2.2777777777777715C32.55555555555557,2.1666666666666607,32.55555555555557,2.05555555555555,32.61111111111112,1.9999999999999938C33.722222222222236,1.8333333333333277,34.66666666666668,1.55555555555555,35.3888888888889,1.1666666666666607C35.44444444444446,1.1666666666666607,35.500000000000014,1.222222222222216,35.55555555555557,1.2777777777777715C35.61111111111112,1.3333333333333268,35.61111111111112,1.4444444444444393,35.61111111111112,1.4999999999999947C35.61111111111112,1.55555555555555,35.61111111111112,1.888888888888883,35.55555555555557,2.388888888888883C35.500000000000014,2.888888888888883,35.500000000000014,3.1666666666666607,35.500000000000014,3.2777777777777715C35.500000000000014,3.2777777777777715,35.500000000000014,3.3333333333333277,35.500000000000014,3.3333333333333277C35.500000000000014,3.3333333333333277,35.55555555555557,3.3333333333333277,35.55555555555557,3.3333333333333277C35.55555555555557,3.3333333333333277,35.55555555555557,3.3333333333333277,35.55555555555557,3.3333333333333277C35.77777777777779,2.8333333333333277,36.11111111111112,2.388888888888883,36.55555555555557,1.9444444444444384C37.000000000000014,1.4999999999999947,37.500000000000014,1.222222222222216,37.8888888888889,1.222222222222216C37.8888888888889,1.222222222222216,37.8888888888889,1.222222222222216,37.8888888888889,1.222222222222216M49.277777777777786,7.499999999999994C49.277777777777786,8.388888888888882,49.33333333333334,8.888888888888882,49.38888888888889,8.944444444444438C49.50000000000001,9.05555555555555,49.66666666666667,9.111111111111105,49.83333333333334,9.111111111111105C49.83333333333334,9.111111111111105,50.777777777777786,9.111111111111105,50.777777777777786,9.111111111111105C50.777777777777786,9.111111111111105,51.88888888888889,9.111111111111105,51.88888888888889,9.111111111111105C52.277777777777786,9.111111111111105,52.66666666666667,9.111111111111105,53.111111111111114,8.999999999999993C53.55555555555556,8.888888888888882,53.88888888888889,8.777777777777771,54.16666666666667,8.611111111111105C54.72222222222223,8.222222222222216,55.111111111111114,7.555555555555549,55.38888888888889,6.611111111111105C55.38888888888889,6.55555555555555,55.50000000000001,6.499999999999994,55.66666666666667,6.499999999999994C55.88888888888889,6.499999999999994,56.111111111111114,6.55555555555555,56.16666666666667,6.611111111111105C56.16666666666667,6.611111111111105,55.83333333333334,7.444444444444438,55.83333333333334,7.444444444444438C55.83333333333334,7.444444444444438,55.66666666666667,7.999999999999994,55.55555555555556,8.333333333333327C55.50000000000001,8.55555555555555,55.38888888888889,8.833333333333327,55.277777777777786,9.111111111111105C55.16666666666667,9.388888888888882,55.16666666666667,9.611111111111105,55.111111111111114,9.833333333333327C55.111111111111114,9.833333333333327,51.94444444444445,9.833333333333327,51.94444444444445,9.833333333333327C51.94444444444445,9.833333333333327,49.33333333333334,9.777777777777771,48.44444444444445,9.777777777777771C48.111111111111114,9.777777777777771,47.72222222222223,9.833333333333327,47.22222222222223,9.833333333333327C47.22222222222223,9.833333333333327,46.111111111111114,9.833333333333327,46.111111111111114,9.833333333333327C46.055555555555564,9.777777777777771,46.055555555555564,9.66666666666666,46.055555555555564,9.55555555555555C46.055555555555564,9.444444444444438,46.055555555555564,9.333333333333327,46.111111111111114,9.277777777777771C46.33333333333334,9.277777777777771,46.555555555555564,9.222222222222216,46.88888888888889,9.16666666666666C47.22222222222223,9.111111111111105,47.44444444444445,9.05555555555555,47.44444444444445,8.944444444444438C47.50000000000001,8.722222222222216,47.555555555555564,8.277777777777771,47.555555555555564,7.499999999999994C47.555555555555564,7.499999999999994,47.555555555555564,-0.8333333333333393,47.555555555555564,-0.8333333333333393C47.555555555555564,-1.611111111111116,47.50000000000001,-2.0555555555555607,47.44444444444445,-2.277777777777784C47.44444444444445,-2.3888888888888946,47.22222222222223,-2.44444444444445,46.88888888888889,-2.5000000000000053C46.555555555555564,-2.5555555555555607,46.33333333333334,-2.611111111111116,46.111111111111114,-2.611111111111116C46.055555555555564,-2.6666666666666714,46.055555555555564,-2.777777777777784,46.055555555555564,-2.8888888888888946C46.055555555555564,-3.0000000000000053,46.055555555555564,-3.111111111111116,46.111111111111114,-3.1666666666666714C47.44444444444445,-3.111111111111116,48.16666666666667,-3.0555555555555607,48.38888888888889,-3.0555555555555607C48.555555555555564,-3.0555555555555607,49.38888888888889,-3.111111111111116,50.72222222222223,-3.1666666666666714C50.777777777777786,-3.111111111111116,50.777777777777786,-3.0000000000000053,50.777777777777786,-2.8888888888888946C50.777777777777786,-2.777777777777784,50.777777777777786,-2.6666666666666714,50.72222222222223,-2.611111111111116C50.50000000000001,-2.611111111111116,50.22222222222223,-2.5555555555555607,49.88888888888889,-2.5000000000000053C49.555555555555564,-2.44444444444445,49.33333333333334,-2.3888888888888946,49.33333333333334,-2.277777777777784C49.277777777777786,-2.0555555555555607,49.277777777777786,-1.5555555555555607,49.277777777777786,-0.8333333333333393C49.277777777777786,-0.8333333333333393,49.277777777777786,7.499999999999994,49.277777777777786,7.499999999999994C49.277777777777786,7.499999999999994,49.277777777777786,7.499999999999994,49.277777777777786,7.499999999999994M57.88888888888889,-1.8333333333333393C57.88888888888889,-2.111111111111116,58.00000000000001,-2.3333333333333393,58.16666666666667,-2.5000000000000053C58.33333333333334,-2.6666666666666714,58.555555555555564,-2.777777777777784,58.83333333333334,-2.777777777777784C59.111111111111114,-2.777777777777784,59.38888888888889,-2.6666666666666714,59.555555555555564,-2.5000000000000053C59.72222222222223,-2.3333333333333393,59.83333333333334,-2.111111111111116,59.83333333333334,-1.8333333333333393C59.83333333333334,-1.5555555555555607,59.72222222222223,-1.277777777777784,59.555555555555564,-1.111111111111116C59.38888888888889,-0.94444444444445,59.111111111111114,-0.8333333333333393,58.83333333333334,-0.8333333333333393C58.555555555555564,-0.8333333333333393,58.33333333333334,-0.94444444444445,58.16666666666667,-1.111111111111116C58.00000000000001,-1.277777777777784,57.88888888888889,-1.5555555555555607,57.88888888888889,-1.8333333333333393C57.88888888888889,-1.8333333333333393,57.88888888888889,-1.8333333333333393,57.88888888888889,-1.8333333333333393M59.777777777777786,3.4444444444444384C59.777777777777786,3.4444444444444384,59.777777777777786,7.499999999999994,59.777777777777786,7.499999999999994C59.777777777777786,8.277777777777771,59.83333333333334,8.722222222222216,59.88888888888889,8.944444444444438C59.88888888888889,9.05555555555555,60.055555555555564,9.111111111111105,60.33333333333334,9.16666666666666C60.611111111111114,9.222222222222216,60.94444444444445,9.277777777777771,61.111111111111114,9.277777777777771C61.16666666666667,9.333333333333327,61.16666666666667,9.444444444444438,61.16666666666667,9.55555555555555C61.16666666666667,9.66666666666666,61.16666666666667,9.777777777777771,61.111111111111114,9.833333333333327C59.777777777777786,9.777777777777771,59.055555555555564,9.722222222222216,59.00000000000001,9.722222222222216C58.777777777777786,9.722222222222216,58.555555555555564,9.777777777777771,58.33333333333334,9.777777777777771C58.33333333333334,9.777777777777771,57.611111111111114,9.777777777777771,57.611111111111114,9.777777777777771C57.611111111111114,9.777777777777771,57.111111111111114,9.833333333333327,56.94444444444445,9.833333333333327C56.88888888888889,9.777777777777771,56.88888888888889,9.66666666666666,56.88888888888889,9.55555555555555C56.88888888888889,9.444444444444438,56.88888888888889,9.333333333333327,56.94444444444445,9.277777777777771C57.111111111111114,9.277777777777771,57.38888888888889,9.222222222222216,57.66666666666667,9.16666666666666C57.94444444444445,9.111111111111105,58.16666666666667,9.05555555555555,58.16666666666667,8.944444444444438C58.22222222222223,8.777777777777771,58.277777777777786,8.277777777777771,58.277777777777786,7.499999999999994C58.277777777777786,7.499999999999994,58.277777777777786,3.888888888888883,58.277777777777786,3.888888888888883C58.277777777777786,3.388888888888883,58.22222222222223,3.05555555555555,58.16666666666667,2.888888888888883C58.111111111111114,2.7777777777777715,58.00000000000001,2.6666666666666607,57.777777777777786,2.6111111111111054C57.555555555555564,2.55555555555555,57.44444444444445,2.499999999999994,57.277777777777786,2.499999999999994C57.277777777777786,2.499999999999994,56.88888888888889,2.499999999999994,56.88888888888889,2.499999999999994C56.88888888888889,2.499999999999994,56.83333333333334,2.388888888888883,56.83333333333334,2.2777777777777715C56.83333333333334,2.1666666666666607,56.83333333333334,2.05555555555555,56.88888888888889,1.9999999999999938C58.00000000000001,1.8333333333333277,58.94444444444445,1.55555555555555,59.66666666666667,1.1666666666666607C59.72222222222223,1.1666666666666607,59.777777777777786,1.222222222222216,59.83333333333334,1.2777777777777715C59.88888888888889,1.3333333333333268,59.88888888888889,1.4444444444444393,59.88888888888889,1.4999999999999947C59.777777777777786,2.1111111111111054,59.777777777777786,2.55555555555555,59.777777777777786,2.7777777777777715C59.777777777777786,2.7777777777777715,59.777777777777786,3.4444444444444384,59.777777777777786,3.4444444444444384C59.777777777777786,3.4444444444444384,59.777777777777786,3.4444444444444384,59.777777777777786,3.4444444444444384M66.7222222222222,-3.8333333333333393C66.99999999999999,-3.8333333333333393,67.16666666666666,-3.777777777777784,67.27777777777776,-3.777777777777784C67.38888888888887,-3.777777777777784,67.44444444444443,-3.7222222222222285,67.6111111111111,-3.611111111111116C67.66666666666666,-3.5555555555555607,67.7222222222222,-3.5000000000000053,67.77777777777776,-3.3888888888888946C67.83333333333331,-3.277777777777784,67.83333333333331,-3.1666666666666714,67.83333333333331,-3.0555555555555607C67.83333333333331,-2.8888888888888946,67.77777777777776,-2.777777777777784,67.7222222222222,-2.6666666666666714C67.66666666666666,-2.5555555555555607,67.6111111111111,-2.44444444444445,67.49999999999999,-2.3888888888888946C67.38888888888887,-2.3333333333333393,67.33333333333331,-2.277777777777784,67.27777777777776,-2.277777777777784C67.27777777777776,-2.277777777777784,67.05555555555554,-2.277777777777784,67.05555555555554,-2.277777777777784C66.94444444444443,-2.277777777777784,66.77777777777776,-2.3333333333333393,66.49999999999999,-2.5000000000000053C66.27777777777776,-2.611111111111116,66.05555555555554,-2.6666666666666714,65.88888888888887,-2.6666666666666714C65.55555555555554,-2.6666666666666714,65.33333333333331,-2.5000000000000053,65.1111111111111,-2.166666666666673C64.88888888888887,-1.8333333333333393,64.83333333333331,-1.3888888888888946,64.83333333333331,-0.8333333333333393C64.83333333333331,-0.8333333333333393,64.83333333333331,1.6111111111111054,64.83333333333331,1.6111111111111054C64.83333333333331,1.6111111111111054,67.1111111111111,1.6111111111111054,67.1111111111111,1.6111111111111054C67.16666666666666,1.6111111111111054,67.2222222222222,1.6666666666666607,67.2222222222222,1.8333333333333277C67.2222222222222,2.05555555555555,67.1111111111111,2.222222222222216,66.94444444444443,2.388888888888883C66.94444444444443,2.388888888888883,64.83333333333331,2.388888888888883,64.83333333333331,2.388888888888883C64.83333333333331,2.388888888888883,64.83333333333331,7.499999999999994,64.83333333333331,7.499999999999994C64.83333333333331,8.277777777777771,64.88888888888887,8.722222222222216,64.94444444444443,8.944444444444438C64.94444444444443,9.05555555555555,65.1111111111111,9.111111111111105,65.44444444444443,9.16666666666666C65.77777777777776,9.222222222222216,65.99999999999999,9.277777777777771,66.2222222222222,9.277777777777771C66.27777777777776,9.333333333333327,66.27777777777776,9.444444444444438,66.27777777777776,9.55555555555555C66.27777777777776,9.66666666666666,66.27777777777776,9.777777777777771,66.2222222222222,9.833333333333327C64.88888888888887,9.777777777777771,64.16666666666666,9.722222222222216,64.05555555555554,9.722222222222216C63.833333333333314,9.722222222222216,63.61111111111109,9.777777777777771,63.38888888888887,9.777777777777771C63.38888888888887,9.777777777777771,62.66666666666665,9.777777777777771,62.66666666666665,9.777777777777771C62.66666666666665,9.777777777777771,62.16666666666665,9.833333333333327,61.999999999999986,9.833333333333327C61.94444444444443,9.777777777777771,61.94444444444443,9.66666666666666,61.94444444444443,9.55555555555555C61.94444444444443,9.444444444444438,61.94444444444443,9.333333333333327,61.999999999999986,9.277777777777771C62.16666666666665,9.277777777777771,62.44444444444443,9.222222222222216,62.72222222222221,9.16666666666666C62.999999999999986,9.111111111111105,63.22222222222221,9.05555555555555,63.22222222222221,8.944444444444438C63.277777777777764,8.722222222222216,63.333333333333314,8.277777777777771,63.333333333333314,7.499999999999994C63.333333333333314,7.499999999999994,63.333333333333314,2.388888888888883,63.333333333333314,2.388888888888883C63.333333333333314,2.388888888888883,62.22222222222221,2.388888888888883,62.22222222222221,2.388888888888883C62.16666666666665,2.388888888888883,62.11111111111109,2.3333333333333277,62.11111111111109,2.222222222222216C62.11111111111109,2.1666666666666607,62.16666666666665,2.1111111111111054,62.333333333333314,1.9444444444444384C62.499999999999986,1.7777777777777715,62.55555555555554,1.6666666666666607,62.61111111111109,1.6111111111111054C62.61111111111109,1.6111111111111054,63.333333333333314,1.6111111111111054,63.333333333333314,1.6111111111111054C63.333333333333314,1.6111111111111054,63.333333333333314,1.222222222222216,63.333333333333314,1.222222222222216C63.333333333333314,0.55555555555555,63.44444444444443,-0.11111111111111605,63.66666666666665,-0.7777777777777839C63.88888888888887,-1.44444444444445,64.2222222222222,-1.94444444444445,64.55555555555554,-2.3888888888888946C64.88888888888887,-2.8333333333333393,65.27777777777776,-3.1666666666666714,65.66666666666666,-3.44444444444445C66.05555555555554,-3.7222222222222285,66.44444444444443,-3.8333333333333393,66.7222222222222,-3.8333333333333393C66.7222222222222,-3.8333333333333393,66.7222222222222,-3.8333333333333393,66.7222222222222,-3.8333333333333393M69.7222222222222,4.222222222222216C69.7222222222222,4.222222222222216,72.88888888888887,4.222222222222216,72.88888888888887,4.222222222222216C73.16666666666666,4.222222222222216,73.33333333333331,4.055555555555549,73.33333333333331,3.7777777777777715C73.33333333333331,3.6666666666666607,73.33333333333331,3.499999999999994,73.27777777777776,3.2777777777777715C73.2222222222222,3.05555555555555,73.1111111111111,2.888888888888883,72.99999999999999,2.6666666666666607C72.88888888888887,2.4444444444444384,72.7222222222222,2.3333333333333277,72.49999999999999,2.1666666666666607C72.27777777777776,1.9999999999999938,71.99999999999999,1.9444444444444384,71.7222222222222,1.9444444444444384C71.38888888888887,1.9444444444444384,71.16666666666666,1.9999999999999938,70.88888888888887,2.1666666666666607C70.6111111111111,2.3333333333333277,70.44444444444443,2.499999999999994,70.27777777777776,2.722222222222216C70.1111111111111,2.9444444444444384,70.05555555555554,3.1666666666666607,69.94444444444443,3.388888888888883C69.83333333333331,3.6111111111111054,69.77777777777776,3.8333333333333277,69.7222222222222,3.999999999999994C69.66666666666666,4.166666666666661,69.7222222222222,4.222222222222216,69.7222222222222,4.222222222222216C69.7222222222222,4.222222222222216,69.7222222222222,4.222222222222216,69.7222222222222,4.222222222222216M69.6111111111111,4.944444444444438C69.6111111111111,6.111111111111105,69.88888888888887,7.05555555555555,70.49999999999999,7.722222222222216C71.1111111111111,8.388888888888882,71.83333333333331,8.66666666666666,72.77777777777776,8.66666666666666C73.2222222222222,8.66666666666666,73.66666666666666,8.55555555555555,74.05555555555554,8.333333333333327C74.44444444444443,8.111111111111105,74.7222222222222,7.888888888888882,74.94444444444443,7.666666666666661C74.94444444444443,7.666666666666661,74.99999999999999,7.666666666666661,74.99999999999999,7.666666666666661C74.99999999999999,7.666666666666661,75.05555555555554,7.722222222222216,75.05555555555554,7.7777777777777715C75.05555555555554,7.833333333333327,75.1111111111111,7.888888888888882,75.1111111111111,7.944444444444438C75.1111111111111,8.05555555555555,75.05555555555554,8.16666666666666,74.99999999999999,8.277777777777771C74.88888888888887,8.444444444444438,74.77777777777776,8.611111111111105,74.6111111111111,8.777777777777771C74.44444444444443,8.944444444444438,74.2222222222222,9.16666666666666,73.99999999999999,9.333333333333327C73.77777777777776,9.499999999999993,73.49999999999999,9.66666666666666,73.16666666666666,9.777777777777771C72.83333333333331,9.888888888888882,72.44444444444443,9.944444444444438,72.1111111111111,9.944444444444438C70.94444444444443,9.944444444444438,70.05555555555554,9.55555555555555,69.33333333333331,8.777777777777771C68.6111111111111,7.999999999999994,68.2222222222222,7.05555555555555,68.2222222222222,5.888888888888882C68.2222222222222,5.2777777777777715,68.38888888888887,4.666666666666661,68.6111111111111,4.055555555555549C68.83333333333331,3.4444444444444384,69.1111111111111,2.9444444444444384,69.49999999999999,2.55555555555555C69.88888888888887,2.1666666666666607,70.27777777777776,1.8333333333333277,70.7222222222222,1.6111111111111054C71.16666666666666,1.3888888888888822,71.6111111111111,1.222222222222216,72.05555555555554,1.222222222222216C72.49999999999999,1.222222222222216,72.94444444444443,1.3333333333333268,73.27777777777776,1.4444444444444393C73.6111111111111,1.55555555555555,73.88888888888887,1.722222222222216,74.1111111111111,1.9444444444444384C74.33333333333331,2.1666666666666607,74.55555555555554,2.3333333333333277,74.66666666666666,2.6111111111111054C74.77777777777776,2.888888888888883,74.88888888888887,3.05555555555555,74.94444444444443,3.2777777777777715C74.99999999999999,3.499999999999994,74.99999999999999,3.722222222222216,74.99999999999999,3.888888888888883C74.99999999999999,4.166666666666661,74.94444444444443,4.388888888888883,74.88888888888887,4.555555555555549C74.83333333333331,4.722222222222216,74.7222222222222,4.7777777777777715,74.55555555555554,4.7777777777777715C74.27777777777776,4.7777777777777715,73.44444444444443,4.833333333333328,71.99999999999999,4.888888888888883C70.55555555555554,4.944444444444438,69.77777777777776,4.944444444444438,69.6111111111111,4.944444444444438C69.6111111111111,4.944444444444438,69.6111111111111,4.944444444444438,69.6111111111111,4.944444444444438"/> </g> </g> </g> </g> </svg>